# xmcd
#
# Track frame offsets: 
#        150
#        17246
#        43483
#        65700
#        86760
#        105088
#        128456
#        146811
#        166597
#        183369
#        207455
#
# Disc length: 3063 seconds
#
# Revision: 0
# Processed by: cddbd v1.5.2PL0 Copyright (c) Steve Scherf et al.
# Submitted via: ExactAudioCopy v1.2
#
DISCID=970bf50b
DTITLE=Thorbjorn Risager And The Black Tornado - Change My Game
DYEAR=2017
DGENRE=Blues
TTITLE0=I Used to Love You
TTITLE1=Dreamland
TTITLE2=Change My Game
TTITLE3=Holler N Moan
TTITLE4=Hard Time
TTITLE5=Long Gone
TTITLE6=Hold My Lover Tight
TTITLE7=Maybe It's Alright
TTITLE8=Train
TTITLE9=Lay My Burden Down
TTITLE10=City of Love
EXTD=
EXTT0=
EXTT1=
EXTT2=
EXTT3=
EXTT4=
EXTT5=
EXTT6=
EXTT7=
EXTT8=
EXTT9=
EXTT10=
PLAYORDER=
